<?xml version="1.0" encoding="iso-8859-1"?>
<!-- Uploaded to: SVG Repo, www.svgrepo.com, Generator: SVG Repo Mixer Tools -->
<!DOCTYPE svg PUBLIC "-//W3C//DTD SVG 1.1//EN" "http://www.w3.org/Graphics/SVG/1.1/DTD/svg11.dtd">
<svg fill="#000000" version="1.1" id="Capa_1" xmlns="http://www.w3.org/2000/svg" xmlns:xlink="http://www.w3.org/1999/xlink" 
	 width="800px" height="800px" viewBox="0 0 498.895 498.896"
	 xml:space="preserve">
<g>
	<g>
		<path d="M175.459,236.231c0.134,2.676,1.453,5.152,3.598,6.757l38.705,28.948c1.254,0.938,2.733,1.533,4.289,1.726l2.6,0.32
			l2.429,10.258l16.962,89.242c0.727,3.824,3.83,6.748,7.69,7.245c0.387,0.05,0.771,0.074,1.154,0.074
			c3.436,0,6.617-1.97,8.122-5.132l57.673-121.154c1.363-2.864,1.117-6.235-0.646-8.872c-1.764-2.637-4.773-4.163-7.953-3.983
			l-7.307,0.384l-12.007-24.974c-1.823-3.796-6.04-5.815-10.141-4.869l-7.779,1.8l-2.417-17.645
			c-0.434-3.153-2.499-5.845-5.438-7.076l-4.573-1.92c-2.623-1.1-5.49-0.869-7.824,0.415l-8.737-7.753
			c-3.451-3.06-8.658-3.019-12.058,0.101l-53.439,49.026C176.388,230.959,175.324,233.556,175.459,236.231z M237.987,198.875
			l10.057,8.924c1.691,1.501,3.854,2.316,6.1,2.267l2.214,16.147c0.342,2.506,1.726,4.751,3.807,6.187
			c2.082,1.436,4.674,1.93,7.139,1.359l10.366-2.398l11.481,23.884c1.32,2.746,3.916,4.603,6.861,5.015l-39.426,82.824
			l-11.861-62.402c-0.025-0.131-0.053-0.262-0.084-0.394l-3.916-16.546c-0.866-3.662-3.921-6.397-7.656-6.858l-6.44-0.794
			l-28.098-21.015L237.987,198.875z"/>
		<path d="M71.024,65.49c-2.75-0.952-5.794-0.515-8.164,1.174c-2.372,1.688-3.78,4.42-3.78,7.331v337.169
			c0,3.865,2.468,7.299,6.133,8.531l108.135,36.35c0.932,0.313,1.899,0.47,2.867,0.47c1.173,0,2.344-0.229,3.444-0.687
			l140.859-58.355l109.094,14.705c2.574,0.348,5.172-0.436,7.127-2.145s3.076-4.179,3.076-6.775V91.707
			c0.014-0.199,0.02-0.401,0.02-0.604c0-0.203-0.006-0.405-0.02-0.604V64.518c0-4.587-3.449-8.439-8.008-8.945l-118.4-13.137
			c-1.537-0.168-3.104,0.06-4.531,0.67l-135.332,57.881L71.024,65.49z M157.306,375.752l-2.749,12.181l-14.073-52.56
			c-0.484-1.812-1.524-3.427-2.972-4.618l-33.255-27.387l22.202-33.355l9.714-4.368l20.812,15.04l-0.47,9.373
			c-0.137,2.763,1.004,5.437,3.094,7.249l22.006,19.081l-23.852,57.919C157.571,374.773,157.418,375.258,157.306,375.752z
			 M412.956,378.021l-1.355-0.373l-0.201-5.891c-0.148-4.243-3.238-7.809-7.416-8.553l-48.424-8.627l-3.25-34.021l15.885-27.575
			l4.998,3.596c0.881,0.637,1.871,1.105,2.922,1.388l28.57,7.677l16.447,57.904L412.956,378.021z M177.424,118.905l136.352-58.317
			l108.039,11.987V80.7l-79.072-11.491c-2.201-0.319-4.447,0.188-6.299,1.427L296.38,97.449h-52.266
			c-3.533,0-6.738,2.066-8.197,5.284c-1.458,3.217-0.899,6.99,1.428,9.646l30.521,34.835l-6.119,8.159
			c-2.572,3.43-2.368,8.198,0.486,11.396l37.51,42c1.709,1.912,4.15,3.005,6.713,3.005c0.021,0,0.045,0,0.066,0
			c2.588-0.02,5.039-1.15,6.734-3.104l6.604-7.619l15.527,11.185l6.285,31.443c0.734,3.677,3.672,6.513,7.371,7.118
			c3.709,0.61,7.391-1.146,9.258-4.397l12.75-22.187l10.484,17.223c1.992,3.271,5.84,4.92,9.578,4.118
			c3.744-0.804,6.568-3.89,7.041-7.689l2.611-21.029l16.791-17.938c2.258-2.412,3.014-5.867,1.967-9.001l-9.24-27.676l11.527-33.91
			v171.764l-1.209-4.259c-0.865-3.045-3.268-5.411-6.322-6.231l-31.912-8.574l-11.748-8.453c-2.064-1.486-4.664-2.03-7.152-1.493
			c-2.488,0.536-4.633,2.101-5.902,4.306l-22.289,38.695c-0.934,1.619-1.338,3.488-1.16,5.349l4.174,43.687
			c0.385,4.021,3.402,7.295,7.379,8.004l47.986,8.55l0.18,5.232c0.059,1.637,0.553,3.178,1.387,4.496l-74.707-10.069
			c-1.57-0.216-3.176-0.004-4.646,0.604L175.884,437.91l-15.271-5.134c1.711-1.251,2.974-3.102,3.467-5.283l10.615-47.035
			l26.027-63.2c1.473-3.576,0.496-7.692-2.426-10.228l-23.586-20.45l0.495-9.877c0.151-3.044-1.247-5.958-3.718-7.744l-28.99-20.95
			c-2.609-1.884-6.028-2.235-8.963-0.913l-16.824,7.565c-1.545,0.694-2.863,1.812-3.801,3.223l-28.143,42.28
			c-2.559,3.844-1.793,8.999,1.771,11.935l37.304,30.72l22.766,85.021c0.022,0.085,0.046,0.169,0.071,0.253l-69.601-23.396V146.661
			l8.783,16.023l-7.146,28.581c-0.68,2.719-0.054,5.599,1.692,7.79l31.332,39.333c2.008,2.521,5.21,3.776,8.395,3.29
			c3.185-0.485,5.868-2.637,7.034-5.64l8.815-22.704l10.469,4.408c2.523,1.064,5.398,0.919,7.805-0.396
			c2.404-1.313,4.082-3.65,4.553-6.351l6.166-35.297c0.771-1.761,0.979-3.768,0.5-5.735l-1.305-5.37l13.755-6.475
			c3.149-1.482,5.162-4.648,5.167-8.13c0.004-3.481-1.998-6.653-5.144-8.145l-49.982-23.703c-0.503-0.238-1.026-0.43-1.564-0.571
			L77.078,104.58V86.636l93.86,32.499C173.054,119.866,175.365,119.786,177.424,118.905z M392.252,165.045l8.502,25.467
			l-15.125,16.159c-0.943,1.008-1.639,2.215-2.037,3.522l-5.074-8.334c-1.654-2.718-4.654-4.373-7.803-4.318
			c-3.18,0.04-6.104,1.757-7.688,4.515l-8.396,14.609l-2.283-11.428c-0.445-2.23-1.721-4.21-3.564-5.539l-25.072-18.061
			c-1.586-1.143-3.428-1.697-5.256-1.697c-2.529,0-5.035,1.063-6.807,3.104l-5.291,6.105l-25.787-28.873l6.076-8.103
			c2.553-3.404,2.375-8.131-0.43-11.331l-22.25-25.395h35.148c1.781,0,3.523-0.529,5.006-1.521l39.457-26.409l69.65,10.122
			l-20.961,61.659C391.635,161.16,391.629,163.178,392.252,165.045z M144.949,161.707l2.444,10.06l-4.367,25.002l-8.587-3.615
			c-2.24-0.942-4.768-0.939-7.005,0.009c-2.238,0.948-3.997,2.763-4.877,5.028l-6.496,16.731l-18.803-23.604l6.922-27.688
			c0.549-2.197,0.249-4.522-0.84-6.509l-17.303-31.567l34.976,9.21l32.015,15.183l-3.167,1.491
			C145.991,153.259,143.938,157.552,144.949,161.707z"/>
		<path d="M469.399,17.966L308.167,0.076c-2.15-0.236-4.312,0.083-6.295,0.931L172,56.552L34.965,9.104
			c-3.822-1.325-8.047-0.717-11.34,1.629c-3.294,2.346-5.25,6.139-5.25,10.183v416.167c0,5.369,3.428,10.139,8.517,11.85
			l146.702,49.312c1.294,0.436,2.639,0.651,3.982,0.651c1.629,0,3.256-0.318,4.784-0.952l143.597-59.493l140.393,18.926
			c3.58,0.481,7.182-0.604,9.896-2.977c2.715-2.374,4.273-5.806,4.273-9.411v-414.6C480.52,24.019,475.729,18.667,469.399,17.966z
			 M455.52,430.69l-129.562-17.466c-2.188-0.295-4.416-0.005-6.455,0.84l-142.383,58.99L43.375,428.097V38.472l125.01,43.283
			c2.939,1.018,6.148,0.903,9.005-0.318l131.288-56.151L455.52,41.579V430.69L455.52,430.69z"/>
	</g>
</g>
</svg>